<svg width="181" height="45" viewBox="0 0 181 45" fill="none" xmlns="http://www.w3.org/2000/svg">
<g clip-path="url(#clip0_1_42)">
<path d="M20.9811 0.758675L9.68324 12.2067L7.66486 22.6181L20.9828 14.7639C20.9828 14.7639 24.4157 12.7794 26.9639 14.7639C29.5121 16.7484 33.4413 19.2219 33.4413 19.2219L27.297 1.8941L25.4115 0.758675C24.8279 0.282298 24.1005 0.0151075 23.346 4.97953e-05C22.69 -0.0217209 21.8928 0.189287 20.9811 0.757" fill="#F8C625"/>
<path d="M1.5556 12.8749C1.5556 12.8749 -0.000231239 13.7575 -0.000231239 16.1824L-0.000231239 30.0822C-0.000231239 30.0822 -0.1432 31.6463 1.10651 32.2877H1.99292L21.0481 0.743652L1.5556 12.8749Z" fill="#207B3D"/>
<path d="M1.11188 32.2827L21.0484 43.9719C24.2694 45.953 26.1465 44.486 26.4106 44.3386C26.4257 44.3269 33.6751 25.8871 33.6751 25.8871C33.6751 25.8871 27.0296 31.4018 24.8144 32.2827C22.5992 33.1636 20.3302 31.2478 20.3302 31.2478L7.95082 22.429L1.11188 32.2827Z" fill="#1C6EB7"/>
<path d="M33.4022 19.2019L40.0999 23.5242L46.1433 19.1768V13.5683L46.0827 13.2518L45.489 12.7192L25.1 0.531006L33.4022 19.2019Z" fill="#F6862B"/>
<path d="M44.7508 17.5054L33.6749 25.8872L26.1464 44.4994L44.8618 33.0547C44.8618 33.0547 47.2939 31.5475 47.299 29.0858V15.6801C47.2669 15.0726 47.0833 14.4827 46.7646 13.9637C46.446 13.4447 46.0024 13.0129 45.474 12.7075C45.474 12.7075 46.4176 16.1825 44.7558 17.5054" fill="#CD2630"/>
<path d="M59.4057 17.8504C59.2214 17.9973 59.0741 18.1852 58.9757 18.3989C58.8772 18.6126 58.8304 18.8463 58.8389 19.0813C58.836 19.3271 58.8985 19.5693 59.0203 19.7832C59.142 19.9971 59.3186 20.175 59.5319 20.2988C59.995 20.6002 61.063 20.9563 62.7361 21.3672C64.4091 21.7781 65.7087 22.3921 66.6349 23.2093C67.56 24.0299 68.0225 25.2273 68.0225 26.8015C68.0225 28.3757 67.4293 29.6529 66.243 30.6331C65.0578 31.6123 63.498 32.1018 61.5637 32.1018C58.7716 32.1018 56.2571 31.0719 54.02 29.0121L56.3664 26.1484C58.2726 27.8063 60.0303 28.6353 61.6394 28.6353C62.3627 28.6353 62.93 28.4806 63.3416 28.1714C63.54 28.0283 63.7002 27.839 63.8081 27.6201C63.916 27.4011 63.9683 27.1592 63.9605 26.9154C63.9668 26.6679 63.9099 26.4228 63.7952 26.2032C63.6805 25.9835 63.5117 25.7964 63.3046 25.6594C62.8672 25.349 62.001 25.0347 60.7059 24.7165C58.6539 24.2309 57.1524 23.599 56.2016 22.8208C55.2507 22.0426 54.7758 20.8201 54.7769 19.1533C54.7769 17.4876 55.3779 16.2036 56.58 15.3016C57.7821 14.3995 59.2835 13.9473 61.0843 13.9451C62.2872 13.9494 63.4809 14.1531 64.6165 14.5479C65.7409 14.9204 66.785 15.4998 67.6945 16.2561L65.7014 19.1198C64.1708 17.9643 62.5897 17.3865 60.9582 17.3865C60.3022 17.3854 59.7847 17.54 59.4057 17.8504Z" fill="#0E161C"/>
<path d="M74.6581 21.1008V27.1547C74.6317 27.5975 74.776 28.0336 75.0618 28.3739C75.18 28.5119 75.3271 28.6226 75.4926 28.6983C75.6582 28.7741 75.8383 28.8131 76.0205 28.8127C76.7269 28.8127 77.324 28.4945 77.8118 27.8581L79.2247 30.4957C78.0473 31.5675 76.8065 32.1034 75.5024 32.1034C74.8939 32.1177 74.2885 32.0118 73.7212 31.7919C73.1539 31.5721 72.636 31.2425 72.1973 30.8223C71.3003 29.9682 70.8517 28.8043 70.8517 27.3306V21.1008H69.2623V18.3879H70.8517V14.3452H74.6614V18.3895H77.9413V21.1008H74.6581Z" fill="#0E161C"/>
<path d="M88.3834 21.7055C87.2542 21.7055 86.4132 22.1035 85.8604 22.8995C85.3076 23.6956 85.0273 24.7461 85.0194 26.0513V31.9042H81.24V18.3897H85.0245V20.1732C85.5421 19.5966 86.1618 19.1197 86.8528 18.7665C87.5394 18.3934 88.3046 18.1869 89.0864 18.1636L89.1117 21.7055H88.3834Z" fill="#0E161C"/>
<path d="M103.016 31.9042H99.4588V30.2714C98.4833 31.4995 97.2762 32.1135 95.8375 32.1135C94.3989 32.1135 93.1923 31.6993 92.2179 30.8709C91.2412 30.0425 90.7535 28.9372 90.7546 27.5551C90.7557 26.1729 91.2603 25.1385 92.2684 24.4519C93.2776 23.7653 94.6568 23.422 96.406 23.422H99.2368V23.3466C99.2368 21.9064 98.4715 21.1863 96.9409 21.1863C96.2295 21.1967 95.5252 21.3287 94.8586 21.5765C94.1952 21.801 93.571 22.127 93.0084 22.5428L91.3264 20.1061C93.0974 18.8198 95.2401 18.141 97.4321 18.1719C99.0793 18.1719 100.425 18.5822 101.469 19.4028C102.513 20.2234 103.034 21.5212 103.033 23.2964L103.016 31.9042ZM99.2066 26.7546V26.1015H96.8349C95.3212 26.1015 94.5643 26.5704 94.5643 27.5082C94.5531 27.7249 94.5969 27.9409 94.6915 28.1364C94.7862 28.3319 94.9287 28.5005 95.1059 28.6269C95.4669 28.887 95.9844 29.0165 96.6583 29.0154C97.305 29.0244 97.9343 28.8068 98.4362 28.4008C98.6854 28.2059 98.885 27.9553 99.0188 27.6693C99.1526 27.3833 99.217 27.0699 99.2066 26.7546Z" fill="#0E161C"/>
<path d="M110.338 21.1008V27.1547C110.312 27.5975 110.456 28.0336 110.742 28.3739C110.86 28.5119 111.007 28.6226 111.173 28.6983C111.338 28.7741 111.518 28.8131 111.701 28.8127C112.407 28.8127 113.004 28.4945 113.492 27.8581L114.905 30.4957C113.727 31.5675 112.487 32.1034 111.184 32.1034C110.576 32.1177 109.97 32.0118 109.403 31.7919C108.836 31.5721 108.318 31.2425 107.879 30.8223C106.982 29.9682 106.534 28.8043 106.534 27.3306V21.1008H104.944V18.3879H106.534V14.3452H110.338V18.3895H113.618V21.1008H110.338Z" fill="#0E161C"/>
<path d="M128.672 29.9448C127.236 31.3466 125.3 32.1236 123.289 32.1051C121.229 32.1051 119.526 31.4732 118.179 30.2094C116.833 28.9456 116.16 27.2497 116.161 25.1217C116.161 23.0005 116.847 21.3091 118.218 20.0475C119.529 18.8146 121.271 18.1388 123.074 18.1635C124.941 18.1635 126.526 18.7245 127.831 19.8465C129.135 20.9686 129.786 22.5093 129.785 24.4686V26.4782H119.895C119.953 26.8431 120.086 27.192 120.285 27.5033C120.485 27.8145 120.747 28.0813 121.056 28.2869C121.701 28.7524 122.479 28.999 123.276 28.9902C124.605 28.9902 125.698 28.5436 126.556 27.6505L128.672 29.9448ZM125.04 21.9382C124.506 21.4978 123.829 21.2657 123.136 21.2851C122.395 21.2827 121.673 21.5207 121.079 21.9633C120.778 22.1752 120.526 22.4482 120.339 22.7643C120.152 23.0804 120.035 23.4324 119.994 23.7971H125.948C125.864 22.9888 125.562 22.3691 125.04 21.9382Z" fill="#0E161C"/>
<path d="M142.55 29.6183C141.999 30.2551 141.313 30.7631 140.543 31.1061C139.772 31.4491 138.935 31.6187 138.091 31.6028C136.315 31.6028 134.818 31.0044 133.6 29.8075C132.382 28.6107 131.772 27.0114 131.77 25.0096C131.77 23.0078 132.397 21.3667 133.65 20.0861C134.904 18.8055 136.338 18.1647 137.951 18.1636C139.566 18.1636 140.903 18.8251 141.963 20.1481V18.3645L145.747 18.3645V30.1441C145.768 31.2483 145.553 32.3442 145.116 33.3595C144.753 34.2261 144.174 34.9867 143.434 35.5701C142.038 36.6754 140.39 37.228 138.489 37.228C137.441 37.2227 136.399 37.0584 135.4 36.7407C134.403 36.4417 133.467 35.9694 132.636 35.3457L134.099 32.5071C135.344 33.4449 136.661 33.9138 138.049 33.9138C139.437 33.9138 140.534 33.5705 141.34 32.8839C142.147 32.1973 142.55 31.1088 142.55 29.6183ZM142.02 24.8589C142.02 23.7793 141.717 22.9291 141.112 22.3084C140.823 22.0063 140.474 21.7677 140.087 21.6076C139.701 21.4476 139.285 21.3697 138.866 21.3789C138.439 21.3732 138.015 21.4525 137.618 21.6121C137.222 21.7717 136.862 22.0084 136.559 22.3084C135.912 22.928 135.587 23.7737 135.586 24.8455C135.585 25.9173 135.901 26.7842 136.533 27.4463C136.825 27.7648 137.182 28.0179 137.58 28.1888C137.978 28.3597 138.408 28.4445 138.841 28.4377C139.269 28.4489 139.694 28.3677 140.087 28.1997C140.48 28.0318 140.832 27.781 141.118 27.4647C141.719 26.8071 142.02 25.9385 142.02 24.8589Z" fill="#0E161C"/>
<path d="M149.148 16.6696C148.774 16.3057 148.539 15.8236 148.482 15.306C148.426 14.7883 148.552 14.2672 148.839 13.8319C149.125 13.3965 149.555 13.0739 150.055 12.9192C150.554 12.7646 151.092 12.7875 151.576 12.984C152.06 13.1806 152.461 13.5386 152.709 13.9968C152.958 14.455 153.039 14.9849 152.938 15.4958C152.837 16.0068 152.562 16.467 152.158 16.7979C151.754 17.1287 151.247 17.3095 150.724 17.3093C150.431 17.3153 150.141 17.2617 149.87 17.1517C149.599 17.0416 149.353 16.8776 149.148 16.6696ZM152.616 31.9091H148.832V18.3945H152.616V31.9091Z" fill="#0E161C"/>
<path d="M167.452 29.9448C166.016 31.3462 164.08 32.1232 162.069 32.1051C160.009 32.1051 158.307 31.4732 156.961 30.2094C155.616 28.9456 154.943 27.2497 154.943 25.1217C154.943 23.0005 155.628 21.3091 156.998 20.0475C158.31 18.8145 160.052 18.1388 161.856 18.1635C163.723 18.1635 165.308 18.7245 166.611 19.8465C167.914 20.9686 168.566 22.5093 168.567 24.4686V26.4782H158.677C158.735 26.8431 158.867 27.192 159.067 27.5033C159.267 27.8145 159.529 28.0813 159.837 28.2869C160.482 28.7524 161.261 28.999 162.058 28.9902C163.386 28.9902 164.48 28.5436 165.337 27.6505L167.452 29.9448ZM163.825 21.9382C163.291 21.4974 162.613 21.2653 161.92 21.2851C161.179 21.2827 160.457 21.5208 159.864 21.9633C159.564 22.1745 159.312 22.4464 159.126 22.7613C158.939 23.0762 158.821 23.4269 158.779 23.7904H164.734C164.645 22.9865 164.342 22.3691 163.825 21.9382Z" fill="#0E161C"/>
<path d="M181 27.6975C181 29.0294 180.508 30.0967 179.523 30.8995C178.539 31.7022 177.29 32.1041 175.777 32.1052C174.704 32.0947 173.639 31.9127 172.624 31.566C171.551 31.2166 170.55 30.6758 169.672 29.97L171.337 27.6087C172.75 28.6973 174.255 29.2416 175.853 29.2416C176.26 29.2629 176.664 29.1626 177.014 28.9535C177.146 28.8737 177.255 28.761 177.33 28.6265C177.405 28.492 177.444 28.3404 177.443 28.1865C177.443 27.8683 177.245 27.5753 176.849 27.3073C176.315 26.9772 175.738 26.7235 175.133 26.5537C174.384 26.3193 173.812 26.1183 173.418 25.9508C172.95 25.7439 172.5 25.5003 172.072 25.2223C171.046 24.586 170.533 23.6443 170.533 22.3972C170.522 21.8049 170.653 21.2185 170.917 20.6873C171.18 20.1561 171.568 19.6955 172.047 19.3443C173.056 18.5627 174.359 18.1692 175.957 18.1636C177.555 18.158 179.153 18.6939 180.751 19.7713L179.338 22.2833C178.161 21.4795 176.987 21.0775 175.818 21.0775C174.648 21.0775 174.064 21.3957 174.065 22.0321C174.065 22.3838 174.25 22.6601 174.62 22.8611C175.212 23.1488 175.829 23.3842 176.462 23.5644C177.32 23.8324 177.929 24.0378 178.29 24.1807C178.741 24.3692 179.176 24.5932 179.59 24.8506C180.53 25.4166 181 26.3656 181 27.6975Z" fill="#0E161C"/>
</g>
<defs>
<clipPath id="clip0_1_42">
<rect width="181" height="45" fill="white"/>
</clipPath>
</defs>
</svg>
